Coordinates
version=1
nRows=17
nColumns=40
inDegrees=yes

Units are S.I. units (second, meters, Newtons, ...)
If the header above contains a line with 'inDegrees', this indicates whether rotational values are in degrees (yes) or radians (no).

endheader
time	pelvis_tilt	pelvis_list	pelvis_rotation	pelvis_tx	pelvis_ty	pelvis_tz	hip_flexion_r	hip_adduction_r	hip_rotation_r	knee_angle_r	knee_angle_r_beta	ankle_angle_r	subtalar_angle_r	mtp_angle_r	hip_flexion_l	hip_adduction_l	hip_rotation_l	knee_angle_l	knee_angle_l_beta	ankle_angle_l	subtalar_angle_l	mtp_angle_l	lumbar_extension	lumbar_bending	lumbar_rotation	arm_flex_r	arm_add_r	arm_rot_r	elbow_flex_r	pro_sup_r	wrist_flex_r	wrist_dev_r	arm_flex_l	arm_add_l	arm_rot_l	elbow_flex_l	pro_sup_l	wrist_flex_l	wrist_dev_l
      0.54000000	      2.69564590	      2.80196234	      2.13008375	     -0.50445758	      0.95101444	      0.24609429	     21.00693123	     -2.43418051	     -5.31963863	      7.29783037	      0.12737117	      1.63733870	      0.00000000	      0.00000000	    -13.61766059	      4.41895967	      0.44972477	     11.65562159	      0.20342897	     13.73892363	      0.00000000	      0.00000000	    -18.33619585	     -3.98889040	     -6.76981017	    -14.69228327	     -3.98465665	     -9.12066375	     43.08112301	     82.92010149	      5.51338941	     10.57955847	      5.84807488	     -7.58709552	    -13.97336770	     67.59930338	     88.10133235	     -2.79606567	     10.12509875
      0.55000000	      2.91314804	      2.53113662	      2.25620256	     -0.49232872	      0.95002350	      0.24614137	     20.84994932	     -2.12201459	     -5.79855168	      7.46167589	      0.13023081	      1.58715198	      0.00000000	      0.00000000	    -14.39395442	      4.00132321	      0.61775517	     12.14678338	      0.21200136	     13.79295008	      0.00000000	      0.00000000	    -18.60621175	     -3.46749889	     -6.93043759	    -14.63297027	     -4.09210835	     -9.19009534	     43.11705608	     82.97382236	      5.55111072	     10.56568740	      5.94308654	     -7.61038144	    -14.01006591	     68.13165531	     88.10423861	     -2.81475449	      9.88785765
      0.56000000	      2.98346496	      2.40405320	      2.24418930	     -0.48022995	      0.94887982	      0.24648450	     20.93199163	     -1.93306595	     -6.02718499	      8.08837995	      0.14116886	      1.51730741	      0.00000000	      0.00000000	    -14.91836243	      3.75870984	      0.59875504	     12.84381754	      0.22416690	     13.73130042	      0.00000000	      0.00000000	    -18.71046168	     -3.14179358	     -6.99455450	    -14.56039539	     -4.15438461	     -9.32740772	     43.15352894	     82.94679135	      5.53513024	     10.52737264	      5.99985944	     -7.69121578	    -13.95100550	     68.54943820	     88.10779278	     -2.80609790	      9.75581357
      0.57000000	      3.08430019	      2.16475253	      2.28624354	     -0.46791038	      0.94788518	      0.24675624	     20.96554780	     -1.67431178	     -6.38228787	      9.02341722	      0.15748834	      1.38322808	      0.00000000	      0.00000000	    -15.40965096	      3.38106744	      0.58211467	     13.69455223	      0.23901503	     13.62060534	      0.00000000	      0.00000000	    -18.83554776	     -2.65967224	     -7.07389793	    -14.50207248	     -4.22775728	     -9.51490818	     43.22624965	     82.89520826	      5.49497901	     10.45721722	      5.97371557	     -7.72285353	    -13.93117516	     68.90650158	     88.11498737	     -2.80876346	      9.58567746
      0.58000000	      3.18265321	      1.94356617	      2.27287882	     -0.45547010	      0.94709582	      0.24712275	     20.98730642	     -1.43228888	     -6.44919046	     10.17665863	      0.17761620	      1.08873980	      0.00000000	      0.00000000	    -15.85881268	      3.03579055	      0.61938398	     14.61706094	      0.25511584	     13.19724758	      0.00000000	      0.00000000	    -18.93057678	     -2.20892981	     -7.11058879	    -14.38103420	     -4.30242011	     -9.68775977	     43.18490135	     82.84439629	      5.45467115	     10.41232580	      5.90892140	     -7.75168426	    -13.87844785	     69.11591102	     88.12731409	     -2.80078553	      9.48752615
      0.59000000	      3.31097587	      1.68044419	      2.27461898	     -0.44283226	      0.94647363	      0.24745676	     20.98501724	     -1.18823402	     -6.73279047	     11.56902719	      0.20191762	      0.72490059	      0.00000000	      0.00000000	    -16.21814688	      2.62503445	      0.44347964	     15.81823531	      0.27608029	     12.65296528	      0.00000000	      0.00000000	    -19.05388748	     -1.69102444	     -7.12898702	    -14.29565320	     -4.38097885	     -9.90029022	     43.23432313	     82.76822080	      5.40039763	     10.33790930	      5.75219679	     -7.72746599	    -13.85844814	     69.30718577	     88.14280290	     -2.79770144	      9.36563461
      0.60000000	      3.30576570	      1.16717544	      2.43944300	     -0.42977947	      0.94577968	      0.24752329	     21.02692245	     -0.78483069	     -7.52540471	     12.96592379	      0.22629806	      0.25547718	      0.00000000	      0.00000000	    -16.28559205	      1.89382479	      0.13356100	     17.37440002	      0.30324049	     12.27775971	      0.00000000	      0.00000000	    -19.00598454	     -0.84798306	     -7.14826021	    -14.36959654	     -4.45605669	    -10.23500669	     43.45406713	     82.58126554	      5.18362461	     10.14759633	      5.50114086	     -7.60059879	    -13.81632236	     69.36529722	     88.17837083	     -2.81709040	      8.96381677
      0.61000000	      3.41433153	      0.90361496	      2.40963714	     -0.41673088	      0.94555856	      0.24791450	     20.93715160	     -0.56436104	     -7.75712543	     14.42309958	      0.25173058	     -0.26379543	      0.00000000	      0.00000000	    -16.40953837	      1.45055176	     -0.29709471	     19.01723083	      0.33191329	     11.19534128	      0.00000000	      0.00000000	    -19.06496133	     -0.32008387	     -7.09700078	    -14.31294128	     -4.53570295	    -10.43981481	     43.51331756	     82.47789639	      5.07631929	     10.05793926	      5.20984313	     -7.50982629	    -13.77651839	     69.35587951	     88.20124056	     -2.82571198	      8.82225439
      0.62000000	      3.47592148	      0.57400370	      2.37197956	     -0.40354311	      0.94550558	      0.24837876	     20.82566163	     -0.27538762	     -7.94273425	     15.81021097	      0.27594024	     -0.75572765	      0.00000000	      0.00000000	    -16.34408771	      0.90879166	     -0.80648892	     20.91918898	      0.36510872	      9.88967331	      0.00000000	      0.00000000	    -19.05069573	      0.26438684	     -6.99527683	    -14.27340950	     -4.61149458	    -10.65649436	     43.58012573	     82.35770583	      4.95645696	      9.97291309	      4.85943381	     -7.37271634	    -13.74191372	     69.22610020	     88.23311195	     -2.83472073	      8.70621729
      0.63000000	      3.43271346	      0.16384814	      2.34154487	     -0.39017014	      0.94551994	      0.24876759	     20.74917413	      0.08165095	     -8.12484917	     17.10448721	      0.29852962	     -1.22332874	      0.00000000	      0.00000000	    -16.00410954	      0.24096176	     -1.52759761	     23.12490002	      0.40360564	      8.33051147	      0.00000000	      0.00000000	    -18.90247088	      0.95694078	     -6.84018473	    -14.27035641	     -4.71274937	    -10.89515699	     43.68207985	     82.19912557	      4.78656615	      9.88076517	      4.45641369	     -7.17486206	    -13.66252312	     68.95476099	     88.27526947	     -2.84233077	      8.58005922
      0.64000000	      3.41420995	     -0.22261511	      2.26213520	     -0.37680539	      0.94583988	      0.24951044	     20.56514132	      0.46525802	     -8.22332242	     18.23881978	      0.31832746	     -1.50585318	      0.00000000	      0.00000000	    -15.54460000	     -0.45259308	     -2.24694848	     25.53369075	      0.44564697	      6.42459275	      0.00000000	      0.00000000	    -18.77805593	      1.55445843	     -6.63219477	    -14.24569367	     -4.76783613	    -11.05434431	     43.75292450	     82.06552781	      4.63820435	      9.82036675	      4.03279157	     -6.98502817	    -13.59315719	     68.57254140	     88.31259463	     -2.85304014	      8.50711653
      0.65000000	      3.35197102	     -0.65298309	      2.18750609	     -0.36339142	      0.94631981	      0.25018683	     20.34296647	      0.89050353	     -8.26880234	     19.24227723	      0.33584109	     -1.63421084	      0.00000000	      0.00000000	    -14.87825580	     -1.24265862	     -3.06698708	     28.17587344	      0.49176176	      4.22204855	      0.00000000	      0.00000000	    -18.56890803	      2.20864591	     -6.38552923	    -14.22299551	     -4.85998798	    -11.20048503	     43.82794435	     81.93228665	      4.48337988	      9.78033614	      3.58504339	     -6.74930890	    -13.49084303	     68.09352043	     88.34893048	     -2.86331737	      8.47546364
      0.66000000	      2.95561876	     -1.30798555	      2.04763444	     -0.34986266	      0.94644558	      0.25106284	     20.40688802	      1.58288363	     -8.30062145	     20.08866817	      0.35061340	     -1.69099014	      0.00000000	      0.00000000	    -13.69895915	     -2.30747058	     -3.97355816	     31.05862414	      0.54207525	      2.03014290	      0.00000000	      0.00000000	    -17.94881606	      3.07276014	     -5.94761121	    -14.28419724	     -4.95751797	    -11.39007402	     43.91819894	     81.70890657	      4.17431748	      9.76807133	      3.13581954	     -6.44942576	    -13.28299805	     67.26960282	     88.38497816	     -2.88414028	      8.44506966
      0.67000000	      3.20026215	     -1.49265121	      1.98492485	     -0.33691355	      0.94780802	      0.25203846	     19.71914823	      1.83472330	     -8.07511222	     20.83601585	      0.36365708	     -1.33766705	      0.00000000	      0.00000000	    -13.07201147	     -2.94406902	     -4.57027989	     33.92916425	      0.59217563	     -0.30762896	      0.00000000	      0.00000000	    -18.11887078	      3.41807758	     -5.82041357	    -14.08818809	     -4.98157858	    -11.35618278	     43.94353738	     81.67457718	      4.13254567	      9.76579101	      2.72876380	     -6.25910392	    -13.27070981	     66.59338079	     88.40848525	     -2.91142096	      8.50724307
      0.68000000	      2.74596999	     -2.20568173	      1.87520957	     -0.32330545	      0.94816519	      0.25312808	     19.63228368	      2.61387296	     -8.28971417	     21.31061221	      0.37194035	     -0.95058579	      0.00000000	      0.00000000	    -11.57844277	     -4.21256924	     -5.43507787	     36.93336730	      0.64460886	     -3.29841273	      0.00000000	      0.00000000	    -17.44315854	      4.30602954	     -5.41953558	    -14.17401072	     -5.07321086	    -11.48371497	     44.16728340	     81.54867197	      3.96626672	      9.81561907	      2.12089652	     -6.02366501	    -12.96369738	     65.84643124	     88.45019422	     -2.91233773	      8.69145478
      0.69000000	      2.21765382	     -2.86446828	      1.81894675	     -0.31030378	      0.94843901	      0.25423974	     19.60673851	      3.34842328	     -8.36879758	     21.69164077	      0.37859055	     -0.50244722	      0.00000000	      0.00000000	     -9.81928281	     -5.42315688	     -5.92361869	     40.11329701	      0.70010911	     -5.35175155	      0.00000000	      0.00000000	    -16.68787070	      5.11997963	     -4.97090379	    -14.20406013	     -5.09814640	    -11.64329880	     44.30250562	     81.40912327	      3.75472442	      9.96286390	      1.75831410	     -5.75145417	    -12.60278830	     64.73530835	     88.48090742	     -2.92282941	      8.96406171
      0.70000000	      2.19711976	     -3.19284865	      1.71192039	     -0.29751829	      0.94968872	      0.25550645	     18.94794299	      3.81901339	     -8.23886646	     21.94603449	      0.38303056	      0.29103138	      0.00000000	      0.00000000	     -8.61181871	     -6.25143336	     -6.20024718	     42.91624843	      0.74902984	     -7.71704446	      0.00000000	      0.00000000	    -16.60412093	      5.54927207	     -4.70504653	    -14.03667148	     -5.10616662	    -11.61616621	     44.48078324	     81.39424742	      3.73675740	     10.01141874	      1.24450609	     -5.59884717	    -12.37266109	     64.01014830	     88.51459637	     -2.91738111	      9.15687380
